# xmcd
#
# Track frame offsets: 
#        150
#        15511
#        41020
#        51037
#        71257
#        92653
#        107865
#        125102
#        141664
#        159165
#        170360
#        186379
#        211707
#        230131
#        242028
#        268639
#        303786
#        320535
#
# Disc length: 4548 seconds
#
# Revision: 5
# Processed by: cddbd v1.5.2PL0 Copyright (c) Steve Scherf et al.
# Submitted via: ExactAudioCopyFreeDBPlugin 1.0
#
DISCID=fb11c212
DTITLE=Amy Winehouse - Frank (Bonus Disc)
DYEAR=2008
DGENRE=Blues
TTITLE0=Take The Box (Original Demo)
TTITLE1=You Sent Me Flying (Original Demo)
TTITLE2=I Heard Love Is Blind (Original Demo)
TTITLE3=Someone To Watch Over Me (Original Demo)
TTITLE4=What Is It (Original Demo)
TTITLE5=Teach Me Tonight (Hootenanny)
TTITLE6='Round Midnight (B-Side)
TTITLE7=Fool's Gold (B-Side)
TTITLE8=Stronger Than Me (Later With Jools Holland)
TTITLE9=I Heard Love Is Blind (Live At The Concorde, Brighton)
TTITLE10=Take The Box (Live At The Concorde, Brighton)
TTITLE11=In My Bed (Live At The Concorde, Brighton)
TTITLE12=Mr Magic (Janice Long Session)
TTITLE13=(There Is) No Greater Love (Janice Long Session)
TTITLE14=Fuck Me Pumps (MJ Cole Mix)
TTITLE15=Take The Box (Seijis Buggin' Mix)
TTITLE16=Stronger Than Me (Harmonic 33 Mix)
TTITLE17=In My Bed (CJ Mix)
EXTD=YEAR: 2008
EXTT0=
EXTT1=
EXTT2=
EXTT3=
EXTT4=
EXTT5=
EXTT6=
EXTT7=
EXTT8=
EXTT9=
EXTT10=
EXTT11=
EXTT12=
EXTT13=
EXTT14=
EXTT15=
EXTT16=
EXTT17=
PLAYORDER=
